<svg xmlns="http://www.w3.org/2000/svg" viewBox="0 0 443.04 455.85"><defs><style>.cls-1{fill:#3d91ca;}.cls-2{fill:#4d5157;}.cls-3{fill:#fff;}.cls-4{fill:#c4c4c4;}.cls-5{fill:#4f4f4f;}</style></defs><title>Zasób 1</title><g id="Warstwa_2" data-name="Warstwa 2"><g id="Warstwa_1-2" data-name="Warstwa 1"><path class="cls-1" d="M78.76 131.85h-.14l-32.87-.73A45.89 45.89 0 0 1 34.6 40.74a45.9 45.9 0 0 1 91.3.86 45.9 45.9 0 0 1-14.27 89.52zM80.2 12.18a33.77 33.77 0 0 0-33.71 33.64v5.29l-5.24.73a33.71 33.71 0 0 0 4.66 67.1l32.87.73 32.73-.73a33.72 33.72 0 0 0 7.23-66.68l-4.89-1 .08-5.31A33.75 33.75 0 0 0 80.2 12.18z"/><path class="cls-1" d="M40.05 130.71h-.49v-12.18h.49a33.75 33.75 0 0 0 33.72-33.72 46 46 0 0 1 45.89-44.51v12.18A33.75 33.75 0 0 0 85.95 86.2a46 46 0 0 1-45.9 44.51z"/><path class="cls-1" d="M99.11 97a6.09 6.09 0 0 1-5.53-3.54l-10-21.58L62 84.79a6.09 6.09 0 0 1-6.24-10.46L89 54.49l15.63 33.87A6.09 6.09 0 0 1 99.11 97z"/><path class="cls-2" d="M246.55 102.86q19.22 0 31.43-15.21l16.72 17.22q-19.89 22.4-46.89 22.4t-44.46-17q-17.47-17-17.47-43t17.8-43.38q17.8-17.38 43.54-17.38 28.75 0 48.14 21.9l-16.21 18.28q-12.37-15.38-30.76-15.38a35.85 35.85 0 0 0-25.16 9.61q-10.45 9.61-10.45 25.91T222.65 93a32.55 32.55 0 0 0 23.9 9.86zM334.22 32.4a10.08 10.08 0 0 0-3.76 8.19 9.25 9.25 0 0 0 4.6 8.11q4.6 3 21.23 7.1t25.83 12.29q9.19 8.19 9.19 23.9t-11.78 25.49q-11.78 9.78-31 9.78-27.75 0-50-20.56l15.54-19.06Q333 104.2 349 104.2q7.19 0 11.28-3.09a9.93 9.93 0 0 0 4.1-8.36 9.74 9.74 0 0 0-4.38-8.36q-4.35-3.09-17.22-6.27Q322.44 73.27 313 65.5t-9.44-24.41q0-16.63 12-25.66t29.84-9a71.77 71.77 0 0 1 23.4 4 62.73 62.73 0 0 1 20.39 11.37l-13.26 19.04q-15.21-11.53-31.43-11.53-6.5 0-10.28 3.09z"/><path class="cls-1" d="M398.11 15.1v-13h41.71v10.57l-13.94 15.88q8.19 1.37 12.67 6.87A19.57 19.57 0 0 1 443 48.14q0 10.72-7.26 16.81T417.21 71q-11.31 0-22.9-8l6.24-12q9.65 6.82 17.25 6.82a12.2 12.2 0 0 0 7.55-2.24 7.63 7.63 0 0 0 3-6.48 7.89 7.89 0 0 0-3.41-6.72q-3.41-2.48-9.45-2.49a32.59 32.59 0 0 0-9.06 1.85V30.5l13.06-15.4zM78.76 288.85h-.14l-32.87-.73a45.89 45.89 0 0 1-11.15-90.38 45.9 45.9 0 0 1 91.3.86 45.9 45.9 0 0 1-14.27 89.52zm1.44-119.67a33.77 33.77 0 0 0-33.71 33.64v5.29l-5.24.73a33.71 33.71 0 0 0 4.66 67.1l32.87.73 32.73-.73a33.72 33.72 0 0 0 7.23-66.68l-4.89-1 .08-5.31a33.75 33.75 0 0 0-33.73-33.77z"/><path class="cls-1" d="M40.05 287.71h-.49v-12.18h.49a33.75 33.75 0 0 0 33.72-33.71 46 46 0 0 1 45.87-44.51v12.18a33.75 33.75 0 0 0-33.69 33.71 46 46 0 0 1-45.9 44.51z"/><path class="cls-1" d="M99.11 254a6.09 6.09 0 0 1-5.53-3.54l-10-21.58L62 241.79a6.09 6.09 0 0 1-6.24-10.46L89 211.49l15.63 33.87a6.09 6.09 0 0 1-5.52 8.64z"/><path class="cls-3" d="M246.55 259.86q19.22 0 31.43-15.21l16.72 17.22q-19.89 22.4-46.89 22.4t-44.46-17q-17.47-17-17.47-43t17.8-43.38q17.8-17.38 43.54-17.38 28.75 0 48.14 21.9l-16.21 18.39q-12.37-15.38-30.76-15.38a35.85 35.85 0 0 0-25.16 9.61q-10.45 9.61-10.45 25.91t9.87 26.06a32.55 32.55 0 0 0 23.9 9.86zM334.22 189.4a10.08 10.08 0 0 0-3.76 8.19 9.25 9.25 0 0 0 4.6 8.11q4.6 3 21.23 7.1t25.83 12.29q9.19 8.19 9.19 23.9t-11.78 25.49q-11.78 9.78-31 9.78-27.75 0-50-20.56l15.54-19.06Q333 261.2 349 261.2q7.19 0 11.28-3.09a9.93 9.93 0 0 0 4.1-8.36 9.74 9.74 0 0 0-4.35-8.36q-4.35-3.09-17.22-6.27-20.4-4.85-29.84-12.62t-9.44-24.41q0-16.63 12-25.66t29.84-9a71.77 71.77 0 0 1 23.4 4 62.73 62.73 0 0 1 20.39 11.37l-13.21 19.06q-15.21-11.53-31.42-11.53-6.53-.02-10.31 3.07z"/><path class="cls-1" d="M398.11 172.1v-13h41.71v10.53l-13.94 15.88q8.19 1.37 12.67 6.87a19.57 19.57 0 0 1 4.45 12.76q0 10.72-7.26 16.81T417.21 228q-11.31 0-22.9-8l6.24-12q9.65 6.82 17.25 6.82a12.2 12.2 0 0 0 7.55-2.24 7.63 7.63 0 0 0 3-6.48 7.89 7.89 0 0 0-3.41-6.72q-3.41-2.48-9.45-2.49a32.59 32.59 0 0 0-9.06 1.85V187.5l13.06-15.4z"/><path class="cls-4" d="M78.76 455.85h-.14l-32.87-.73a45.89 45.89 0 0 1-11.15-90.38 45.9 45.9 0 0 1 91.3.86 45.9 45.9 0 0 1-14.27 89.52zm1.44-119.67a33.77 33.77 0 0 0-33.71 33.64v5.29l-5.24.73a33.71 33.71 0 0 0 4.66 67.1l32.87.73 32.73-.73a33.72 33.72 0 0 0 7.23-66.68l-4.89-1 .08-5.31a33.75 33.75 0 0 0-33.73-33.77z"/><path class="cls-4" d="M40.05 454.71h-.49v-12.18h.49a33.75 33.75 0 0 0 33.72-33.71 46 46 0 0 1 45.87-44.51v12.18a33.75 33.75 0 0 0-33.69 33.71 46 46 0 0 1-45.9 44.51z"/><path class="cls-4" d="M99.11 421a6.09 6.09 0 0 1-5.53-3.54l-10-21.58L62 408.79a6.09 6.09 0 0 1-6.24-10.46L89 378.49l15.63 33.87a6.09 6.09 0 0 1-5.52 8.64z"/><path class="cls-5" d="M246.55 426.86q19.22 0 31.43-15.21l16.72 17.22q-19.89 22.4-46.89 22.4t-44.46-17q-17.47-17-17.47-43t17.8-43.38q17.8-17.38 43.54-17.38 28.75 0 48.14 21.9l-16.21 18.39q-12.37-15.38-30.76-15.38a35.85 35.85 0 0 0-25.16 9.61q-10.45 9.61-10.45 25.91t9.87 26.06a32.55 32.55 0 0 0 23.9 9.86zM334.22 356.4a10.08 10.08 0 0 0-3.76 8.19 9.25 9.25 0 0 0 4.6 8.11q4.6 3 21.23 7.1t25.83 12.29q9.19 8.19 9.19 23.9t-11.78 25.49q-11.78 9.78-31 9.78-27.75 0-50-20.56l15.54-19.06Q333 428.2 349 428.2q7.19 0 11.28-3.09a9.93 9.93 0 0 0 4.1-8.36 9.74 9.74 0 0 0-4.35-8.36q-4.35-3.09-17.22-6.27-20.4-4.85-29.84-12.62t-9.44-24.41q0-16.63 12-25.66t29.84-9a71.77 71.77 0 0 1 23.4 4 62.73 62.73 0 0 1 20.39 11.37l-13.21 19.06q-15.21-11.53-31.42-11.53-6.53-.02-10.31 3.07z"/><path class="cls-4" d="M398.11 339.1v-13h41.71v10.53l-13.94 15.88q8.19 1.37 12.67 6.87a19.57 19.57 0 0 1 4.45 12.76q0 10.72-7.26 16.81T417.21 395q-11.31 0-22.9-8l6.24-12q9.65 6.82 17.25 6.82a12.2 12.2 0 0 0 7.55-2.24 7.63 7.63 0 0 0 3-6.48 7.89 7.89 0 0 0-3.41-6.72q-3.41-2.48-9.45-2.49a32.59 32.59 0 0 0-9.06 1.85V354.5l13.06-15.4z"/></g></g></svg>